<svg width="16" height="16" viewBox="0 0 16 16" fill="none" xmlns="http://www.w3.org/2000/svg">
<path d="M4.11301 11.9994C4.25074 11.609 4.50617 11.271 4.84407 11.0319C5.18198 10.7928 5.58573 10.6644 5.99967 10.6644C6.41362 10.6644 6.81737 10.7928 7.15527 11.0319C7.49318 11.271 7.74861 11.609 7.88634 11.9994H14.6663V13.3327H7.88634C7.74861 13.723 7.49318 14.0611 7.15527 14.3002C6.81737 14.5393 6.41362 14.6677 5.99967 14.6677C5.58573 14.6677 5.18198 14.5393 4.84407 14.3002C4.50617 14.0611 4.25074 13.723 4.11301 13.3327H1.33301V11.9994H4.11301ZM8.11301 7.33269C8.25074 6.94233 8.50617 6.60431 8.84407 6.36521C9.18198 6.12612 9.58573 5.99772 9.99967 5.99772C10.4136 5.99772 10.8174 6.12612 11.1553 6.36521C11.4932 6.60431 11.7486 6.94233 11.8863 7.33269H14.6663V8.66602H11.8863C11.7486 9.05638 11.4932 9.3944 11.1553 9.6335C10.8174 9.87259 10.4136 10.001 9.99967 10.001C9.58573 10.001 9.18198 9.87259 8.84407 9.6335C8.50617 9.3944 8.25074 9.05638 8.11301 8.66602H1.33301V7.33269H8.11301ZM4.11301 2.66602C4.25074 2.27567 4.50617 1.93764 4.84407 1.69855C5.18198 1.45945 5.58573 1.33105 5.99967 1.33105C6.41362 1.33105 6.81737 1.45945 7.15527 1.69855C7.49318 1.93764 7.74861 2.27567 7.88634 2.66602H14.6663V3.99936H7.88634C7.74861 4.38971 7.49318 4.72773 7.15527 4.96683C6.81737 5.20592 6.41362 5.33432 5.99967 5.33432C5.58573 5.33432 5.18198 5.20592 4.84407 4.96683C4.50617 4.72773 4.25074 4.38971 4.11301 3.99936H1.33301V2.66602H4.11301ZM5.99967 3.99936C6.17649 3.99936 6.34605 3.92912 6.47108 3.80409C6.5961 3.67907 6.66634 3.5095 6.66634 3.33269C6.66634 3.15588 6.5961 2.98631 6.47108 2.86128C6.34605 2.73626 6.17649 2.66602 5.99967 2.66602C5.82286 2.66602 5.65329 2.73626 5.52827 2.86128C5.40325 2.98631 5.33301 3.15588 5.33301 3.33269C5.33301 3.5095 5.40325 3.67907 5.52827 3.80409C5.65329 3.92912 5.82286 3.99936 5.99967 3.99936ZM9.99967 8.66602C10.1765 8.66602 10.3461 8.59578 10.4711 8.47076C10.5961 8.34574 10.6663 8.17617 10.6663 7.99936C10.6663 7.82254 10.5961 7.65298 10.4711 7.52795C10.3461 7.40293 10.1765 7.33269 9.99967 7.33269C9.82286 7.33269 9.65329 7.40293 9.52827 7.52795C9.40325 7.65298 9.33301 7.82254 9.33301 7.99936C9.33301 8.17617 9.40325 8.34574 9.52827 8.47076C9.65329 8.59578 9.82286 8.66602 9.99967 8.66602ZM5.99967 13.3327C6.17649 13.3327 6.34605 13.2625 6.47108 13.1374C6.5961 13.0124 6.66634 12.8428 6.66634 12.666C6.66634 12.4892 6.5961 12.3196 6.47108 12.1946C6.34605 12.0696 6.17649 11.9994 5.99967 11.9994C5.82286 11.9994 5.65329 12.0696 5.52827 12.1946C5.40325 12.3196 5.33301 12.4892 5.33301 12.666C5.33301 12.8428 5.40325 13.0124 5.52827 13.1374C5.65329 13.2625 5.82286 13.3327 5.99967 13.3327Z" fill="#3A434B"/>
</svg>
