<svg width="87" height="25" viewBox="0 0 87 25" fill="none" xmlns="http://www.w3.org/2000/svg">
<path d="M38.8117 20H40.4481L43.3373 9.56818H43.4395L46.3287 20H47.9651L51.5447 6.90909H49.9339L47.1981 17.571H47.0702L44.2833 6.90909H42.4935L39.7066 17.571H39.5787L36.843 6.90909H35.2322L38.8117 20ZM55.2904 20.2301C57.0035 20.2301 57.8983 19.3097 58.2052 18.6705H58.2819V20H59.7904V13.5312C59.7904 10.4119 57.4126 10.054 56.1597 10.054C54.6768 10.054 52.9893 10.5653 52.2222 12.3551L53.654 12.8665C53.9864 12.1506 54.7726 11.3835 56.2108 11.3835C57.5979 11.3835 58.2819 12.1186 58.2819 13.3778V13.429C58.2819 14.1577 57.5404 14.0938 55.7506 14.3239C53.9289 14.5604 51.941 14.9631 51.941 17.2131C51.941 19.1307 53.4239 20.2301 55.2904 20.2301ZM55.5205 18.875C54.3188 18.875 53.4495 18.3381 53.4495 17.2898C53.4495 16.1392 54.4978 15.7812 55.6739 15.6278C56.3131 15.5511 58.0262 15.3722 58.2819 15.0653V16.446C58.2819 17.6733 57.3103 18.875 55.5205 18.875ZM64.0523 6.90909H62.5438V20H64.0523V6.90909ZM68.3238 6.90909H66.8153V20H68.3238V6.90909ZM75.2032 20.2045C77.1975 20.2045 78.6549 19.2074 79.1151 17.7244L77.6578 17.3153C77.2742 18.3381 76.3857 18.8494 75.2032 18.8494C73.4326 18.8494 72.2117 17.7053 72.1414 15.6023H79.2686V14.9631C79.2686 11.3068 77.0953 10.054 75.0498 10.054C72.3907 10.054 70.6265 12.1506 70.6265 15.1676C70.6265 18.1847 72.3651 20.2045 75.2032 20.2045ZM72.1414 14.2983C72.2437 12.7706 73.324 11.4091 75.0498 11.4091C76.6862 11.4091 77.7345 12.6364 77.7345 14.2983H72.1414ZM85.8332 10.1818H83.7366V7.82955H82.2281V10.1818H80.7451V11.4602H82.2281V17.5966C82.2281 19.3097 83.6088 20.1278 84.8872 20.1278C85.4497 20.1278 85.8076 20.0256 86.0122 19.9489L85.7053 18.5938C85.5775 18.6193 85.373 18.6705 85.0406 18.6705C84.3758 18.6705 83.7366 18.4659 83.7366 17.1875V11.4602H85.8332V10.1818Z" fill="white"/>
<path fill-rule="evenodd" clip-rule="evenodd" d="M10.4112 6.86965C9.0298 4.47697 9.82385 1.41851 12.1947 0L23.1147 18.9973L20.2854 23.9722L10.4112 6.86965ZM0.931641 4.86734C3.30917 3.49467 6.34931 4.3092 7.72207 6.68668L14.8302 18.9972L11.9779 24L0.931641 4.86734ZM20.2429 4.46608C19.706 4.46608 19.2022 4.72584 18.8909 5.16326C18.5193 5.68528 18.4815 6.37458 18.7936 6.93414L22.8976 14.2901L28.5695 4.46608L20.2429 4.46608Z" fill="white"/>
</svg>
