<svg width="94" height="24" viewBox="0 0 94 24" fill="none" xmlns="http://www.w3.org/2000/svg">
<rect x="0.5" y="0.5" width="93" height="23" rx="3.5" fill="#EAFBF1"/>
<circle cx="14" cy="12" r="6" fill="white"/>
<circle cx="14" cy="12" r="3" fill="#1E944D"/>
<path d="M29.8295 9.45455H30.8523C30.8054 8.13778 29.5909 7.15341 27.9034 7.15341C26.233 7.15341 24.9205 8.125 24.9205 9.59091C24.9205 10.767 25.7727 11.4659 27.1364 11.858L28.2102 12.1648C29.1307 12.4205 29.9489 12.7443 29.9489 13.6136C29.9489 14.5682 29.0284 15.1989 27.8182 15.1989C26.7784 15.1989 25.858 14.7386 25.7727 13.75H24.6818C24.7841 15.1818 25.9432 16.1534 27.8182 16.1534C29.8295 16.1534 30.9716 15.0455 30.9716 13.6307C30.9716 11.9943 29.4205 11.4659 28.517 11.2273L27.6307 10.9886C26.983 10.8182 25.9432 10.4773 25.9432 9.53977C25.9432 8.70455 26.7102 8.09091 27.8693 8.09091C28.9261 8.09091 29.7273 8.59375 29.8295 9.45455ZM36.6978 13.3239C36.6978 14.5511 35.7603 15.1136 35.0103 15.1136C34.1751 15.1136 33.5785 14.5 33.5785 13.5455V9.45455H32.5728V13.6136C32.5728 15.2841 33.4592 16.0852 34.6864 16.0852C35.6751 16.0852 36.3228 15.5568 36.6296 14.892H36.6978V16H37.7035V9.45455H36.6978V13.3239ZM42.2045 16.1364C43.6534 16.1364 44.608 15.25 44.7784 14.0909H43.7727C43.5852 14.8068 42.9886 15.233 42.2045 15.233C41.0114 15.233 40.2443 14.2443 40.2443 12.7273C40.2443 11.2443 41.0284 10.2727 42.2045 10.2727C43.0909 10.2727 43.6193 10.8182 43.7727 11.4148H44.7784C44.608 10.1875 43.5682 9.36932 42.1875 9.36932C40.4148 9.36932 39.2386 10.767 39.2386 12.7614C39.2386 14.7216 40.3636 16.1364 42.2045 16.1364ZM48.9077 16.1364C50.3565 16.1364 51.3111 15.25 51.4815 14.0909H50.4759C50.2884 14.8068 49.6918 15.233 48.9077 15.233C47.7145 15.233 46.9474 14.2443 46.9474 12.7273C46.9474 11.2443 47.7315 10.2727 48.9077 10.2727C49.794 10.2727 50.3224 10.8182 50.4759 11.4148H51.4815C51.3111 10.1875 50.2713 9.36932 48.8906 9.36932C47.1179 9.36932 45.9418 10.767 45.9418 12.7614C45.9418 14.7216 47.0668 16.1364 48.9077 16.1364ZM55.696 16.1364C57.0256 16.1364 57.9972 15.4716 58.304 14.483L57.3324 14.2102C57.0767 14.892 56.4844 15.233 55.696 15.233C54.5156 15.233 53.7017 14.4702 53.6548 13.0682H58.4062V12.642C58.4062 10.2045 56.9574 9.36932 55.5938 9.36932C53.821 9.36932 52.6449 10.767 52.6449 12.7784C52.6449 14.7898 53.804 16.1364 55.696 16.1364ZM53.6548 12.1989C53.723 11.1804 54.4432 10.2727 55.5938 10.2727C56.6847 10.2727 57.3835 11.0909 57.3835 12.1989H53.6548ZM64.5724 10.9205C64.2571 9.99148 63.5497 9.36932 62.2543 9.36932C60.8736 9.36932 59.8509 10.1534 59.8509 11.2614C59.8509 12.1648 60.3878 12.7699 61.5895 13.0511L62.6804 13.3068C63.3409 13.4602 63.652 13.7756 63.652 14.2273C63.652 14.7898 63.0554 15.25 62.1179 15.25C61.2955 15.25 60.7798 14.8963 60.6009 14.1932L59.6463 14.4318C59.8807 15.544 60.7969 16.1364 62.1349 16.1364C63.6562 16.1364 64.6918 15.3054 64.6918 14.1761C64.6918 13.2642 64.1207 12.6889 62.9531 12.4034L61.9815 12.1648C61.206 11.973 60.8565 11.7131 60.8565 11.2102C60.8565 10.6477 61.4531 10.2386 62.2543 10.2386C63.1321 10.2386 63.4943 10.7244 63.669 11.1761L64.5724 10.9205ZM70.842 10.9205C70.5266 9.99148 69.8192 9.36932 68.5238 9.36932C67.1431 9.36932 66.1204 10.1534 66.1204 11.2614C66.1204 12.1648 66.6573 12.7699 67.859 13.0511L68.9499 13.3068C69.6104 13.4602 69.9215 13.7756 69.9215 14.2273C69.9215 14.7898 69.3249 15.25 68.3874 15.25C67.565 15.25 67.0494 14.8963 66.8704 14.1932L65.9158 14.4318C66.1502 15.544 67.0664 16.1364 68.4045 16.1364C69.9258 16.1364 70.9613 15.3054 70.9613 14.1761C70.9613 13.2642 70.3903 12.6889 69.2227 12.4034L68.2511 12.1648C67.4755 11.973 67.1261 11.7131 67.1261 11.2102C67.1261 10.6477 67.7227 10.2386 68.5238 10.2386C69.4016 10.2386 69.7638 10.7244 69.9386 11.1761L70.842 10.9205ZM75.3899 9.45455H73.924V8.78977C73.924 8.14205 74.1967 7.80114 74.8615 7.80114C75.1513 7.80114 75.3217 7.86932 75.424 7.90341L75.7138 7.03409C75.5604 6.96591 75.2536 6.86364 74.7592 6.86364C73.8217 6.86364 72.9183 7.42614 72.9183 8.55114V9.45455H71.8615V10.3068H72.9183V16H73.924V10.3068H75.3899V9.45455ZM80.9244 13.3239C80.9244 14.5511 79.9869 15.1136 79.2369 15.1136C78.4016 15.1136 77.805 14.5 77.805 13.5455V9.45455H76.7994V13.6136C76.7994 15.2841 77.6857 16.0852 78.913 16.0852C79.9016 16.0852 80.5494 15.5568 80.8562 14.892H80.9244V16H81.93V9.45455H80.9244V13.3239ZM84.7777 7.27273H83.772V16H84.7777V7.27273Z" fill="#166A37"/>
<rect x="0.5" y="0.5" width="93" height="23" rx="3.5" stroke="#C0F2D4"/>
</svg>
