<svg width="66" height="24" viewBox="0 0 66 24" fill="none" xmlns="http://www.w3.org/2000/svg">
<rect x="0.5" y="0.5" width="65" height="23" rx="3.5" fill="#FCE9E9"/>
<circle cx="14" cy="12" r="6" fill="white"/>
<circle cx="14" cy="12" r="3" fill="#9D1515"/>
<path d="M25.0568 16H26.1136V12.0966H29.8977V11.1591H26.1136V8.21023H30.2898V7.27273H25.0568V16ZM33.8896 16.1534C35.0316 16.1534 35.6282 15.5398 35.8327 15.1136H35.8839V16H36.8896V11.6875C36.8896 9.60795 35.3043 9.36932 34.4691 9.36932C33.4805 9.36932 32.3555 9.71023 31.8441 10.9034L32.7987 11.2443C33.0202 10.767 33.5444 10.2557 34.5032 10.2557C35.4279 10.2557 35.8839 10.7457 35.8839 11.5852V11.6193C35.8839 12.1051 35.3896 12.0625 34.1964 12.2159C32.9819 12.3736 31.6566 12.642 31.6566 14.142C31.6566 15.4205 32.6452 16.1534 33.8896 16.1534ZM34.043 15.25C33.2418 15.25 32.6623 14.892 32.6623 14.1932C32.6623 13.4261 33.3612 13.1875 34.1452 13.0852C34.5714 13.0341 35.7134 12.9148 35.8839 12.7102V13.6307C35.8839 14.4489 35.2362 15.25 34.043 15.25ZM38.7251 16H39.7308V9.45455H38.7251V16ZM39.2365 8.36364C39.6286 8.36364 39.9524 8.05682 39.9524 7.68182C39.9524 7.30682 39.6286 7 39.2365 7C38.8445 7 38.5206 7.30682 38.5206 7.68182C38.5206 8.05682 38.8445 8.36364 39.2365 8.36364ZM42.5785 7.27273H41.5728V16H42.5785V7.27273ZM47.1648 16.1364C48.4943 16.1364 49.4659 15.4716 49.7727 14.483L48.8011 14.2102C48.5455 14.892 47.9531 15.233 47.1648 15.233C45.9844 15.233 45.1705 14.4702 45.1236 13.0682H49.875V12.642C49.875 10.2045 48.4261 9.36932 47.0625 9.36932C45.2898 9.36932 44.1136 10.767 44.1136 12.7784C44.1136 14.7898 45.2727 16.1364 47.1648 16.1364ZM45.1236 12.1989C45.1918 11.1804 45.9119 10.2727 47.0625 10.2727C48.1534 10.2727 48.8523 11.0909 48.8523 12.1989H45.1236ZM53.8764 16.1364C55.1378 16.1364 55.5639 15.3523 55.7855 14.9943H55.9048V16H56.8764V7.27273H55.8707V10.4943H55.7855C55.5639 10.1534 55.1719 9.36932 53.8935 9.36932C52.2401 9.36932 51.098 10.6818 51.098 12.7443C51.098 14.8239 52.2401 16.1364 53.8764 16.1364ZM54.0128 15.233C52.7514 15.233 52.1037 14.125 52.1037 12.7273C52.1037 11.3466 52.7344 10.2727 54.0128 10.2727C55.2401 10.2727 55.8878 11.2614 55.8878 12.7273C55.8878 14.2102 55.223 15.233 54.0128 15.233Z" fill="#700F0F"/>
<rect x="0.5" y="0.5" width="65" height="23" rx="3.5" stroke="#F6BCBC"/>
</svg>
